<svg width="20" height="20" viewBox="0 0 20 20" fill="none" xmlns="http://www.w3.org/2000/svg">
<path fill-rule="evenodd" clip-rule="evenodd" d="M3.29236 0.453175C3.29219 0.56882 3.15519 0.600851 2.87277 0.551305C2.51765 0.489005 2.45442 0.521008 2.46043 0.760409C2.46433 0.9159 2.5664 1.07846 2.68705 1.12169C2.80784 1.16492 2.86616 1.27013 2.81666 1.35561C2.68471 1.58319 3.23033 2.47024 3.46968 2.41756C3.58154 2.39289 3.89978 2.57218 4.17691 2.81585C4.4539 3.05953 4.71724 3.25841 4.7619 3.25757C4.80656 3.25688 5.1206 3.50159 5.45983 3.80145C5.79906 4.10132 6.12881 4.34536 6.19252 4.34376C6.25637 4.34216 6.31091 4.4354 6.31381 4.55097C6.31671 4.66654 6.40046 4.75906 6.50006 4.75656C6.73265 4.75072 7.43758 5.05768 7.44171 5.16663C7.44341 5.21242 7.60586 5.42912 7.80275 5.64817C7.99951 5.86737 8.16023 6.10962 8.1598 6.18672C8.15868 6.40864 7.85616 6.76217 7.55571 6.89263C7.37987 6.96909 7.34379 7.03447 7.45585 7.07343C7.72517 7.16704 7.66991 7.37237 7.39218 7.30982C7.24701 7.27715 6.92954 7.46159 6.61263 7.76306C6.3187 8.04264 6.02687 8.27269 5.96427 8.27426C5.90167 8.27583 5.85215 8.34393 5.8542 8.42546C5.85624 8.50699 5.91954 8.53329 5.99485 8.48375C6.07017 8.4342 6.13426 8.49203 6.13727 8.61208C6.14028 8.73213 6.0565 8.83263 5.95105 8.83527C5.84575 8.83791 5.68221 8.93873 5.5878 9.05926C5.49339 9.17994 5.3468 9.25706 5.26193 9.23074C5.06875 9.17082 3.96859 10.3826 3.80998 10.8299C3.74524 11.0124 3.57391 11.1962 3.42936 11.2381C3.28467 11.2801 3.13285 11.4649 3.0918 11.6486C3.05089 11.8324 2.86549 12.1436 2.67986 12.3401C2.4941 12.5368 2.34467 12.7951 2.34766 12.9142C2.35065 13.0333 2.29466 13.1321 2.2233 13.1339C2.05707 13.1381 1.88476 13.6939 1.94361 14.0366C1.97555 14.2226 1.92627 14.278 1.77641 14.2244C1.51431 14.1306 1.21459 14.4846 1.32608 14.7563C1.37116 14.8662 1.32594 15.0281 1.22584 15.1162C0.973066 15.3384 1.13089 15.8258 1.42274 15.7241C1.6071 15.6601 1.61382 15.6725 1.45808 15.7901C1.35221 15.87 1.18891 15.908 1.09536 15.8745C0.877374 15.7965 0.776728 16.0849 0.844847 16.592C0.876684 16.8291 0.790259 17.146 0.631721 17.3739C0.393098 17.7164 0.383865 17.8255 0.543814 18.4032C0.659688 18.822 0.816137 19.0769 0.98777 19.127C1.13346 19.1696 1.25413 19.2632 1.25593 19.335C1.25773 19.4069 1.36879 19.4616 1.50258 19.4567C1.79239 19.4458 2.40664 18.5568 2.53429 17.9634C2.58416 17.7317 2.69705 17.4932 2.7852 17.4335C2.89059 17.3624 2.86213 17.3265 2.70198 17.3291C2.56813 17.3313 2.45691 17.2701 2.45498 17.193C2.45304 17.116 2.51629 17.0513 2.59544 17.0493C2.68976 17.047 2.68158 16.943 2.57174 16.7483C2.42695 16.4917 2.43666 16.4626 2.64201 16.5361C2.98585 16.6591 3.66318 15.8933 3.71025 15.3281C3.73113 15.0784 3.84931 14.7955 3.97288 14.6996C4.09645 14.6037 4.19649 14.4801 4.19511 14.4249C4.19372 14.3697 4.37659 14.1296 4.60155 13.8914C4.82636 13.6534 5.20137 13.16 5.43484 12.795C5.66817 12.4302 5.91729 12.0899 5.98825 12.0389C6.05922 11.9879 6.07302 11.8778 6.01887 11.7944C5.95704 11.6989 6.00131 11.6716 6.1384 11.7206C6.26509 11.7659 6.35452 11.724 6.35192 11.6204C6.34946 11.5223 6.43592 11.3399 6.54414 11.2151C6.88979 10.8162 7.27 10.4193 7.48553 10.2326C7.60078 10.1327 7.6568 9.95773 7.6101 9.84396C7.56251 9.72797 7.60208 9.63489 7.69987 9.63243C7.79599 9.63002 8.0819 9.40208 8.33513 9.1259C8.5885 8.84972 8.86355 8.62205 8.9466 8.61997C9.0295 8.61789 9.20922 8.47966 9.34576 8.3128C9.54416 8.07037 9.56203 7.95036 9.43447 7.71485C9.30297 7.47229 9.30813 7.45043 9.46323 7.59078C9.71391 7.81773 10.0628 7.79987 9.96648 7.56498C9.83408 7.24212 10.5705 7.46194 10.7305 7.79308C10.8098 7.95733 11.199 8.30192 11.5955 8.55886C11.992 8.8158 12.5318 9.22572 12.7951 9.4696C13.0585 9.71362 13.3667 9.91082 13.4801 9.90797C13.5935 9.90513 13.6878 9.96584 13.6898 10.0429C13.6917 10.1199 13.7766 10.1809 13.8784 10.1783C13.9803 10.1758 14.1513 10.3292 14.2585 10.5192C14.3657 10.7093 14.5338 10.8627 14.6323 10.8603C14.8827 10.854 15.4908 11.4626 15.431 11.6598C15.4038 11.7494 15.4494 11.821 15.5323 11.8189C15.6151 11.8168 15.6852 11.9038 15.6879 12.0121C15.6911 12.137 15.7895 12.1811 15.9565 12.1326C16.1127 12.0872 16.3416 12.1724 16.5186 12.3419C16.6826 12.499 16.9108 12.6253 17.0256 12.6225C17.1404 12.6196 17.2366 12.7118 17.2395 12.8274C17.2459 13.0817 17.4738 13.1006 17.5661 12.8542C17.6159 12.7208 17.6617 12.7168 17.7526 12.8385C17.8189 12.9271 18.0404 13.0374 18.2451 13.0837C18.5364 13.1496 18.6493 13.1036 18.7653 12.8715C18.8468 12.7085 19.0051 12.5728 19.1171 12.57C19.2508 12.5667 19.3173 12.4203 19.3104 12.1446C19.3033 11.8645 19.2303 11.7261 19.0912 11.7296C18.9764 11.7325 18.8784 11.6562 18.8735 11.5599C18.8638 11.3738 18.3815 10.7662 18.246 10.7696C18.0519 10.7745 17.5933 10.2814 17.5878 10.062C17.5844 9.9295 17.4547 9.7361 17.2994 9.63234C17.1443 9.52858 17.0625 9.39229 17.1178 9.3295C17.1732 9.26658 17.0457 9.25127 16.8346 9.29526C16.5213 9.36058 16.4054 9.30238 16.2051 8.97982C16.0701 8.7623 15.889 8.58602 15.803 8.58818C15.6091 8.59304 14.4619 7.53016 14.4572 7.34133C14.4553 7.26569 14.4031 7.237 14.3412 7.2778C14.2793 7.31846 14.1212 7.2316 13.9897 7.08463C13.8583 6.93767 13.6639 6.81961 13.5578 6.82227C13.4516 6.82494 13.2821 6.73177 13.1809 6.61502C13.0799 6.49841 12.9269 6.43216 12.8412 6.46781C12.6003 6.56791 12.2767 6.26078 12.2252 5.88319C12.1918 5.63677 12.3208 5.41136 12.692 5.06817C12.9743 4.80724 13.2521 4.59142 13.3094 4.58844C13.3667 4.5856 13.4113 4.4886 13.4084 4.37304C13.4055 4.25747 13.4862 4.16083 13.5876 4.15829C13.8019 4.15291 14.2834 3.62108 14.3994 3.26186C14.4432 3.12592 14.5594 3.01157 14.6574 3.00799C14.7905 3.00297 14.7856 2.97127 14.6381 2.88232C14.503 2.80076 14.6031 2.75914 14.9552 2.75031C15.504 2.73655 16.6124 2.05205 16.4618 1.81992C16.3261 1.61069 16.6533 1.31303 17.0294 1.30359C17.4591 1.29282 17.8192 0.841687 17.6 0.58885C17.3816 0.336836 16.1355 0.397665 15.9944 0.667247C15.9321 0.786412 15.6814 0.903014 15.4374 0.926514C15.1935 0.950015 14.9954 1.03306 14.9972 1.11109C15.0006 1.2586 14.8643 1.35089 13.9397 1.82697C13.4045 2.10251 12.9292 2.63292 13.2242 2.62552C13.3013 2.62359 13.3667 2.71026 13.3694 2.81826C13.3731 2.96605 13.2198 3.00381 12.7468 2.97124C12.2527 2.93724 12.1205 2.97335 12.1247 3.14089C12.128 3.27215 12.0022 3.35702 11.7972 3.36217C11.6141 3.36676 11.4306 3.46598 11.3894 3.58265C11.3484 3.69932 11.2435 3.79657 11.1565 3.79875C11.0694 3.80093 10.8163 3.96497 10.5938 4.16329C10.1538 4.55545 9.51813 4.6625 9.51019 4.34577C9.5075 4.23861 9.34781 4.1152 9.15532 4.07167C8.8521 4.00316 8.72636 3.78499 8.77259 3.40803C8.77927 3.35277 8.69762 3.34389 8.59099 3.38819C8.33338 3.49516 7.71588 3.11116 7.07869 2.44759C6.68521 2.03793 6.45965 1.91337 6.14174 1.93045C5.78629 1.9496 5.73309 1.90959 5.79015 1.6651C5.85035 1.40694 5.8123 1.38841 5.42206 1.4851C5.06819 1.57275 4.98574 1.54861 4.98092 1.35656C4.9773 1.21241 4.90033 1.1514 4.78351 1.20003C4.67812 1.24374 4.45946 1.16134 4.29758 1.01696C4.13555 0.872443 3.92912 0.756092 3.8387 0.75836C3.74828 0.760628 3.58846 0.654182 3.48339 0.521973C3.37142 0.380967 3.29233 0.352393 3.29236 0.453175ZM12.2433 4.07818C12.2017 4.19094 12.1679 4.15857 12.1571 3.99554C12.1475 3.84804 12.1782 3.76457 12.2256 3.80992C12.2729 3.85527 12.2809 3.97604 12.2433 4.07818Z" fill="#141009"/>
</svg>
