<svg width="62" height="74" viewBox="0 0 62 74" fill="none" xmlns="http://www.w3.org/2000/svg">
<path d="M31.1352 4.0713C28.3946 7.60692 27.2413 14.8328 27.2413 17.5232C27.2414 20.2136 29.0918 19.541 30.9734 17.2077C34.0328 12.5415 38.8227 8.7675 39.5038 8.07117C40.1849 7.37484 44.5987 2.497 41.858 0.729208C39.1174 -1.03858 33.8758 0.53568 31.1352 4.0713Z" fill="#141009"/>
<path d="M9.87955 21.6927C-2.23877 36.4899 -3.60137 50.4805 7.97748 67.9681C15.7563 79.7165 27.244 71.9679 20.9186 61.2421C20.9186 61.2421 15.4698 52.4983 15.4698 49.1353C15.4698 45.7724 16.0095 41.1981 17.3719 42.5433C18.7342 43.8885 35.2216 67.2955 35.2216 67.2955C41.3516 75.3667 46.8004 76.5546 53.6114 68.6407C64.0419 56.5211 62.7971 42.9287 60.1595 36.0036C59.9021 35.3279 58.9632 34.868 58.5746 34.9751C49.7203 34.3025 47.677 30.2669 49.7203 22.1957C50.158 20.4669 48.5563 19.7828 48.2169 19.6392C43.4491 17.6214 36.6381 19.6392 36.6382 27.7104C36.6382 31.0734 42.7681 35.7741 44.2715 41.0285C45.9464 46.8825 43.9349 53.3048 43.2537 51.9596C42.5724 50.6144 20.7774 21.6927 20.7774 21.6927C17.7086 18.1602 12.2598 18.8327 9.87955 21.6927Z" fill="#141009"/>
</svg>
